<mxfile host="app.diagrams.net" modified="2020-03-25T09:41:59.375Z" agent="Mozilla/5.0 (Macintosh; Intel Mac OS X 10_13_6) AppleWebKit/537.36 (KHTML, like Gecko) Chrome/80.0.3987.149 Safari/537.36" etag="BIhmffh-4_BkJtxgavvd" version="12.9.2" type="github">
  <diagram id="s8lIuSN80trYDoQiagXm" name="第 1 页">
    <mxGraphModel dx="1426" dy="794" grid="0" gridSize="10" guides="1" tooltips="1" connect="1" arrows="1" fold="1" page="1" pageScale="1" pageWidth="827" pageHeight="1169" math="0" shadow="0">
      <root>
        <mxCell id="0" />
        <mxCell id="1" parent="0" />
        <mxCell id="mZvArZAPH8fcJvdWJ9Ia-1" value="线程1" style="rounded=1;whiteSpace=wrap;html=1;absoluteArcSize=1;arcSize=14;strokeWidth=2;fillColor=#fff2cc;strokeColor=#d6b656;" vertex="1" parent="1">
          <mxGeometry x="40" y="240" width="80" height="70" as="geometry" />
        </mxCell>
        <mxCell id="mZvArZAPH8fcJvdWJ9Ia-3" value="线程2" style="rounded=1;whiteSpace=wrap;html=1;absoluteArcSize=1;arcSize=14;strokeWidth=2;fillColor=#fff2cc;strokeColor=#d6b656;" vertex="1" parent="1">
          <mxGeometry x="40" y="400" width="80" height="70" as="geometry" />
        </mxCell>
        <mxCell id="mZvArZAPH8fcJvdWJ9Ia-4" value="获取锁" style="rounded=1;whiteSpace=wrap;html=1;absoluteArcSize=1;arcSize=14;strokeWidth=2;fillColor=#d5e8d4;strokeColor=#82b366;" vertex="1" parent="1">
          <mxGeometry x="160" y="320" width="80" height="70" as="geometry" />
        </mxCell>
        <mxCell id="mZvArZAPH8fcJvdWJ9Ia-5" value="" style="endArrow=classic;html=1;exitX=1;exitY=0.5;exitDx=0;exitDy=0;edgeStyle=orthogonalEdgeStyle;" edge="1" parent="1" source="mZvArZAPH8fcJvdWJ9Ia-1" target="mZvArZAPH8fcJvdWJ9Ia-4">
          <mxGeometry width="50" height="50" relative="1" as="geometry">
            <mxPoint x="390" y="430" as="sourcePoint" />
            <mxPoint x="280" y="290" as="targetPoint" />
          </mxGeometry>
        </mxCell>
        <mxCell id="mZvArZAPH8fcJvdWJ9Ia-6" value="" style="endArrow=classic;html=1;exitX=1;exitY=0.5;exitDx=0;exitDy=0;edgeStyle=orthogonalEdgeStyle;entryX=0.5;entryY=1;entryDx=0;entryDy=0;" edge="1" parent="1" source="mZvArZAPH8fcJvdWJ9Ia-3" target="mZvArZAPH8fcJvdWJ9Ia-4">
          <mxGeometry width="50" height="50" relative="1" as="geometry">
            <mxPoint x="130" y="285" as="sourcePoint" />
            <mxPoint x="210" y="330" as="targetPoint" />
          </mxGeometry>
        </mxCell>
        <mxCell id="mZvArZAPH8fcJvdWJ9Ia-7" value="Redis加锁" style="strokeWidth=2;html=1;shape=mxgraph.flowchart.decision;whiteSpace=wrap;fillColor=#d5e8d4;strokeColor=#82b366;" vertex="1" parent="1">
          <mxGeometry x="290" y="305" width="100" height="100" as="geometry" />
        </mxCell>
        <mxCell id="mZvArZAPH8fcJvdWJ9Ia-8" value="加锁成功" style="rounded=1;whiteSpace=wrap;html=1;absoluteArcSize=1;arcSize=14;strokeWidth=2;fillColor=#fff2cc;strokeColor=#d6b656;" vertex="1" parent="1">
          <mxGeometry x="440" y="240" width="80" height="70" as="geometry" />
        </mxCell>
        <mxCell id="mZvArZAPH8fcJvdWJ9Ia-10" value="" style="endArrow=classic;html=1;exitX=1;exitY=0.5;exitDx=0;exitDy=0;entryX=0;entryY=0.5;entryDx=0;entryDy=0;entryPerimeter=0;" edge="1" parent="1" source="mZvArZAPH8fcJvdWJ9Ia-4" target="mZvArZAPH8fcJvdWJ9Ia-7">
          <mxGeometry width="50" height="50" relative="1" as="geometry">
            <mxPoint x="390" y="420" as="sourcePoint" />
            <mxPoint x="440" y="370" as="targetPoint" />
          </mxGeometry>
        </mxCell>
        <mxCell id="mZvArZAPH8fcJvdWJ9Ia-12" value="" style="endArrow=classic;html=1;exitX=0.5;exitY=1;exitDx=0;exitDy=0;exitPerimeter=0;edgeStyle=orthogonalEdgeStyle;entryX=0;entryY=0.5;entryDx=0;entryDy=0;entryPerimeter=0;" edge="1" parent="1" source="mZvArZAPH8fcJvdWJ9Ia-7" target="mZvArZAPH8fcJvdWJ9Ia-27">
          <mxGeometry width="50" height="50" relative="1" as="geometry">
            <mxPoint x="390" y="420" as="sourcePoint" />
            <mxPoint x="440" y="435" as="targetPoint" />
          </mxGeometry>
        </mxCell>
        <mxCell id="mZvArZAPH8fcJvdWJ9Ia-13" value="" style="endArrow=classic;html=1;exitX=0.5;exitY=0;exitDx=0;exitDy=0;exitPerimeter=0;edgeStyle=orthogonalEdgeStyle;entryX=0;entryY=0.5;entryDx=0;entryDy=0;" edge="1" parent="1" source="mZvArZAPH8fcJvdWJ9Ia-7" target="mZvArZAPH8fcJvdWJ9Ia-8">
          <mxGeometry width="50" height="50" relative="1" as="geometry">
            <mxPoint x="350" y="415" as="sourcePoint" />
            <mxPoint x="450" y="445" as="targetPoint" />
          </mxGeometry>
        </mxCell>
        <mxCell id="mZvArZAPH8fcJvdWJ9Ia-16" style="edgeStyle=orthogonalEdgeStyle;rounded=0;orthogonalLoop=1;jettySize=auto;html=1;exitX=0.5;exitY=1;exitDx=0;exitDy=0;" edge="1" parent="1" source="mZvArZAPH8fcJvdWJ9Ia-14">
          <mxGeometry relative="1" as="geometry">
            <mxPoint x="620" y="400" as="targetPoint" />
          </mxGeometry>
        </mxCell>
        <mxCell id="mZvArZAPH8fcJvdWJ9Ia-14" value="执行任务逻辑" style="rounded=1;whiteSpace=wrap;html=1;absoluteArcSize=1;arcSize=14;strokeWidth=2;fillColor=#fff2cc;strokeColor=#d6b656;" vertex="1" parent="1">
          <mxGeometry x="580" y="240" width="80" height="70" as="geometry" />
        </mxCell>
        <mxCell id="mZvArZAPH8fcJvdWJ9Ia-15" value="" style="endArrow=classic;html=1;entryX=0;entryY=0.5;entryDx=0;entryDy=0;exitX=1;exitY=0.5;exitDx=0;exitDy=0;" edge="1" parent="1" source="mZvArZAPH8fcJvdWJ9Ia-8" target="mZvArZAPH8fcJvdWJ9Ia-14">
          <mxGeometry width="50" height="50" relative="1" as="geometry">
            <mxPoint x="390" y="410" as="sourcePoint" />
            <mxPoint x="440" y="360" as="targetPoint" />
          </mxGeometry>
        </mxCell>
        <mxCell id="mZvArZAPH8fcJvdWJ9Ia-17" value="释放锁" style="rounded=1;whiteSpace=wrap;html=1;absoluteArcSize=1;arcSize=14;strokeWidth=2;fillColor=#fff2cc;strokeColor=#d6b656;" vertex="1" parent="1">
          <mxGeometry x="580" y="400" width="80" height="70" as="geometry" />
        </mxCell>
        <mxCell id="mZvArZAPH8fcJvdWJ9Ia-19" value="1.使用Redis的set命令，同时设置过期时间，避免死锁情况" style="strokeWidth=2;html=1;shape=mxgraph.flowchart.document2;whiteSpace=wrap;size=0.25;" vertex="1" parent="1">
          <mxGeometry x="200" y="160" width="130" height="90" as="geometry" />
        </mxCell>
        <mxCell id="mZvArZAPH8fcJvdWJ9Ia-20" value="" style="endArrow=classic;html=1;entryX=0.26;entryY=0.22;entryDx=0;entryDy=0;entryPerimeter=0;" edge="1" parent="1" source="mZvArZAPH8fcJvdWJ9Ia-19" target="mZvArZAPH8fcJvdWJ9Ia-7">
          <mxGeometry width="50" height="50" relative="1" as="geometry">
            <mxPoint x="390" y="410" as="sourcePoint" />
            <mxPoint x="440" y="360" as="targetPoint" />
          </mxGeometry>
        </mxCell>
        <mxCell id="mZvArZAPH8fcJvdWJ9Ia-29" style="edgeStyle=orthogonalEdgeStyle;rounded=0;orthogonalLoop=1;jettySize=auto;html=1;exitX=0.5;exitY=0;exitDx=0;exitDy=0;exitPerimeter=0;entryX=1;entryY=0.5;entryDx=0;entryDy=0;entryPerimeter=0;" edge="1" parent="1" source="mZvArZAPH8fcJvdWJ9Ia-27" target="mZvArZAPH8fcJvdWJ9Ia-7">
          <mxGeometry relative="1" as="geometry" />
        </mxCell>
        <mxCell id="mZvArZAPH8fcJvdWJ9Ia-30" value="网络异常进入自循环" style="text;html=1;align=center;verticalAlign=middle;resizable=0;points=[];labelBackgroundColor=#ffffff;" vertex="1" connectable="0" parent="mZvArZAPH8fcJvdWJ9Ia-29">
          <mxGeometry x="-0.4959" y="17" relative="1" as="geometry">
            <mxPoint x="-17" y="-19" as="offset" />
          </mxGeometry>
        </mxCell>
        <mxCell id="mZvArZAPH8fcJvdWJ9Ia-27" value="加锁失败或自循环超时直接结束" style="strokeWidth=2;html=1;shape=mxgraph.flowchart.decision;whiteSpace=wrap;fillColor=#f8cecc;strokeColor=#b85450;" vertex="1" parent="1">
          <mxGeometry x="428.5" y="384" width="103" height="102" as="geometry" />
        </mxCell>
      </root>
    </mxGraphModel>
  </diagram>
</mxfile>
